v 0.0000000e0 0.0000000e0 0.0000000e0
v 0.0000000e0 0.0000000e0 1.0000000e0
v 1.0000000e0 0.0000000e0 0.0000000e0
v 1.0000000e0 0.0000000e0 1.0000000e0
v 1.0000000e0 0.0000000e0 0.0000000e0
v 1.0000000e0 0.0000000e0 1.0000000e0
v 1.0000000e0 1.0000000e0 0.0000000e0
v 1.0000000e0 1.0000000e0 1.0000000e0
v 1.0000000e0 1.0000000e0 0.0000000e0
v 1.0000000e0 1.0000000e0 1.0000000e0
v 0.0000000e0 1.0000000e0 0.0000000e0
v 0.0000000e0 1.0000000e0 1.0000000e0
v 0.0000000e0 1.0000000e0 0.0000000e0
v 0.0000000e0 1.0000000e0 1.0000000e0
v 0.0000000e0 0.0000000e0 0.0000000e0
v 0.0000000e0 0.0000000e0 1.0000000e0
v 0.0000000e0 0.0000000e0 0.0000000e0
v 1.0000000e0 0.0000000e0 0.0000000e0
v 0.0000000e0 1.0000000e0 0.0000000e0
v 1.0000000e0 1.0000000e0 0.0000000e0
v 0.0000000e0 0.0000000e0 1.0000000e0
v 0.0000000e0 1.0000000e0 1.0000000e0
v 1.0000000e0 0.0000000e0 1.0000000e0
v 1.0000000e0 1.0000000e0 1.0000000e0
vt 0.0000000e0 0.0000000e0
vt 0.0000000e0 1.0000000e0
vt 1.0000000e0 0.0000000e0
vt 1.0000000e0 1.0000000e0
vt 0.0000000e0 0.0000000e0
vt 0.0000000e0 1.0000000e0
vt 1.0000000e0 0.0000000e0
vt 1.0000000e0 1.0000000e0
vt 0.0000000e0 0.0000000e0
vt 0.0000000e0 1.0000000e0
vt 1.0000000e0 0.0000000e0
vt 1.0000000e0 1.0000000e0
vt 0.0000000e0 0.0000000e0
vt 0.0000000e0 1.0000000e0
vt 1.0000000e0 0.0000000e0
vt 1.0000000e0 1.0000000e0
vt 0.0000000e0 0.0000000e0
vt 0.0000000e0 1.0000000e0
vt 1.0000000e0 0.0000000e0
vt 1.0000000e0 1.0000000e0
vt 0.0000000e0 0.0000000e0
vt 0.0000000e0 1.0000000e0
vt 1.0000000e0 0.0000000e0
vt 1.0000000e0 1.0000000e0
vn 0.0000000e0 -1.0000000e0 0.0000000e0
vn 0.0000000e0 -1.0000000e0 0.0000000e0
vn 0.0000000e0 -1.0000000e0 0.0000000e0
vn 0.0000000e0 -1.0000000e0 0.0000000e0
vn 1.0000000e0 0.0000000e0 0.0000000e0
vn 1.0000000e0 0.0000000e0 0.0000000e0
vn 1.0000000e0 0.0000000e0 0.0000000e0
vn 1.0000000e0 0.0000000e0 0.0000000e0
vn 0.0000000e0 1.0000000e0 0.0000000e0
vn 0.0000000e0 1.0000000e0 0.0000000e0
vn 0.0000000e0 1.0000000e0 0.0000000e0
vn 0.0000000e0 1.0000000e0 0.0000000e0
vn -1.0000000e0 0.0000000e0 0.0000000e0
vn -1.0000000e0 0.0000000e0 0.0000000e0
vn -1.0000000e0 0.0000000e0 0.0000000e0
vn -1.0000000e0 0.0000000e0 0.0000000e0
vn 0.0000000e0 0.0000000e0 -1.0000000e0
vn 0.0000000e0 0.0000000e0 -1.0000000e0
vn 0.0000000e0 0.0000000e0 -1.0000000e0
vn 0.0000000e0 0.0000000e0 -1.0000000e0
vn 0.0000000e0 0.0000000e0 1.0000000e0
vn 0.0000000e0 0.0000000e0 1.0000000e0
vn 0.0000000e0 0.0000000e0 1.0000000e0
vn 0.0000000e0 0.0000000e0 1.0000000e0
f 1/1/1 3/3/3 4/4/4 2/2/2
f 5/1/5 7/3/7 8/4/8 6/2/6
f 9/1/9 11/3/11 12/4/12 10/2/10
f 13/1/13 15/3/15 16/4/16 14/2/14
f 17/1/17 19/3/19 20/4/20 18/2/18
f 21/1/21 23/3/23 24/4/24 22/2/22
