<?xml version="1.0" encoding="UTF-8" standalone="no"?>
<!DOCTYPE svg PUBLIC "-//W3C//DTD SVG 1.1//EN"
 "http://www.w3.org/Graphics/SVG/1.1/DTD/svg11.dtd">
<!-- Generated by graphviz version 14.0.4 (20251115.1723)
 -->
<!-- Pages: 1 -->
<svg width="782pt" height="548pt"
 viewBox="0.00 0.00 782.00 548.00" xmlns="http://www.w3.org/2000/svg" xmlns:xlink="http://www.w3.org/1999/xlink">
<g id="graph0" class="graph" transform="scale(1 1) rotate(0) translate(4 544)">
<polygon fill="white" stroke="none" points="-4,4 -4,-544 777.75,-544 777.75,4 -4,4"/>
<!-- 0 -->
<g id="node1" class="node">
<title>0</title>
<polygon fill="none" stroke="black" points="429.12,-36 356.88,-36 356.88,0 429.12,0 429.12,-36"/>
<text xml:space="preserve" text-anchor="middle" x="393" y="-12.95" font-family="Times,serif" font-size="14.00">truck&#45;base</text>
</g>
<!-- 1 -->
<g id="node2" class="node">
<title>1</title>
<polygon fill="none" stroke="#00cd00" points="215.88,-36 124.12,-36 124.12,0 215.88,0 215.88,-36"/>
<text xml:space="preserve" text-anchor="middle" x="170" y="-12.95" font-family="Times,serif" font-size="14.00">truck&#45;derivers</text>
</g>
<!-- 2 -->
<g id="node3" class="node">
<title>2</title>
<polygon fill="none" stroke="black" points="242,-180 142,-180 142,-144 242,-144 242,-180"/>
<text xml:space="preserve" text-anchor="middle" x="192" y="-156.95" font-family="Times,serif" font-size="14.00">truck&#45;geometry</text>
</g>
<!-- 2&#45;&gt;0 -->
<g id="edge1" class="edge">
<title>2&#45;&gt;0</title>
<path fill="none" stroke="black" d="M190.79,-143.57C190.39,-123.7 192.93,-91.44 211,-72 245.33,-35.06 303.77,-23.36 345.16,-19.91"/>
<polygon fill="black" stroke="black" points="345.36,-23.4 355.1,-19.23 344.89,-16.42 345.36,-23.4"/>
</g>
<!-- 3 -->
<g id="node4" class="node">
<title>3</title>
<polygon fill="none" stroke="black" points="309.75,-108 220.25,-108 220.25,-72 309.75,-72 309.75,-108"/>
<text xml:space="preserve" text-anchor="middle" x="265" y="-84.95" font-family="Times,serif" font-size="14.00">truck&#45;geotrait</text>
</g>
<!-- 2&#45;&gt;3 -->
<g id="edge2" class="edge">
<title>2&#45;&gt;3</title>
<path fill="none" stroke="black" d="M204.13,-143.7C212.04,-135.28 222.55,-125.02 232.66,-115.79"/>
<polygon fill="black" stroke="black" points="234.74,-118.63 239.86,-109.36 230.07,-113.41 234.74,-118.63"/>
</g>
<!-- 2&#45;&gt;3 -->
<g id="edge3" class="edge">
<title>2&#45;&gt;3</title>
<path fill="none" stroke="blue" d="M215.96,-143.7C225.48,-135.39 236.22,-125.28 245.29,-116.14"/>
<polygon fill="blue" stroke="blue" points="247.57,-118.81 252.01,-109.19 242.54,-113.95 247.57,-118.81"/>
</g>
<!-- 3&#45;&gt;0 -->
<g id="edge4" class="edge">
<title>3&#45;&gt;0</title>
<path fill="none" stroke="black" d="M296.97,-71.52C313.43,-62.51 333.71,-51.42 351.38,-41.76"/>
<polygon fill="black" stroke="black" points="353.02,-44.86 360.11,-36.99 349.66,-38.71 353.02,-44.86"/>
</g>
<!-- 3&#45;&gt;1 -->
<g id="edge5" class="edge">
<title>3&#45;&gt;1</title>
<path fill="none" stroke="#00cd00" stroke-dasharray="1,5" d="M241.52,-71.7C229.76,-63.03 215.33,-52.4 202.52,-42.96"/>
<polygon fill="#00cd00" stroke="#00cd00" points="204.89,-40.36 194.76,-37.24 200.74,-45.99 204.89,-40.36"/>
</g>
<!-- 4 -->
<g id="node5" class="node">
<title>4</title>
<polygon fill="none" stroke="black" points="409.62,-540 352.38,-540 352.38,-504 409.62,-504 409.62,-540"/>
<text xml:space="preserve" text-anchor="middle" x="381" y="-516.95" font-family="Times,serif" font-size="14.00">truck&#45;js</text>
</g>
<!-- 5 -->
<g id="node6" class="node">
<title>5</title>
<polygon fill="none" stroke="black" points="508.38,-324 407.62,-324 407.62,-288 508.38,-288 508.38,-324"/>
<text xml:space="preserve" text-anchor="middle" x="458" y="-300.95" font-family="Times,serif" font-size="14.00">truck&#45;meshalgo</text>
</g>
<!-- 4&#45;&gt;5 -->
<g id="edge6" class="edge">
<title>4&#45;&gt;5</title>
<path fill="none" stroke="black" d="M387.17,-503.85C400.43,-466.99 431.76,-379.92 447.94,-334.96"/>
<polygon fill="black" stroke="black" points="451.19,-336.25 451.29,-325.66 444.61,-333.88 451.19,-336.25"/>
</g>
<!-- 7 -->
<g id="node8" class="node">
<title>7</title>
<polygon fill="none" stroke="black" points="394.12,-180 297.88,-180 297.88,-144 394.12,-144 394.12,-180"/>
<text xml:space="preserve" text-anchor="middle" x="346" y="-156.95" font-family="Times,serif" font-size="14.00">truck&#45;topology</text>
</g>
<!-- 4&#45;&gt;7 -->
<g id="edge10" class="edge">
<title>4&#45;&gt;7</title>
<path fill="none" stroke="black" d="M404.05,-503.5C450.09,-466.27 546.56,-375.41 517,-288 504.1,-249.85 493.47,-241.12 462,-216 445.13,-202.54 424.3,-191.65 404.96,-183.32"/>
<polygon fill="black" stroke="black" points="406.38,-180.12 395.81,-179.53 403.71,-186.59 406.38,-180.12"/>
</g>
<!-- 8 -->
<g id="node9" class="node">
<title>8</title>
<polygon fill="none" stroke="black" points="432,-252 332,-252 332,-216 432,-216 432,-252"/>
<text xml:space="preserve" text-anchor="middle" x="382" y="-228.95" font-family="Times,serif" font-size="14.00">truck&#45;modeling</text>
</g>
<!-- 4&#45;&gt;8 -->
<g id="edge7" class="edge">
<title>4&#45;&gt;8</title>
<path fill="none" stroke="black" d="M381.06,-503.54C381.23,-455.76 381.69,-322.51 381.9,-263.61"/>
<polygon fill="black" stroke="black" points="385.4,-263.76 381.93,-253.75 378.4,-263.73 385.4,-263.76"/>
</g>
<!-- 9 -->
<g id="node10" class="node">
<title>9</title>
<polygon fill="none" stroke="black" points="200.88,-396 103.12,-396 103.12,-360 200.88,-360 200.88,-396"/>
<text xml:space="preserve" text-anchor="middle" x="152" y="-372.95" font-family="Times,serif" font-size="14.00">truck&#45;shapeops</text>
</g>
<!-- 4&#45;&gt;9 -->
<g id="edge8" class="edge">
<title>4&#45;&gt;9</title>
<path fill="none" stroke="black" d="M352.07,-518.59C314.81,-514.17 249.64,-501.86 206,-468 185.73,-452.28 171.34,-426.63 162.54,-406.9"/>
<polygon fill="black" stroke="black" points="165.8,-405.62 158.7,-397.76 159.34,-408.33 165.8,-405.62"/>
</g>
<!-- 10 -->
<g id="node11" class="node">
<title>10</title>
<polygon fill="none" stroke="black" points="295.25,-468 214.75,-468 214.75,-432 295.25,-432 295.25,-468"/>
<text xml:space="preserve" text-anchor="middle" x="255" y="-444.95" font-family="Times,serif" font-size="14.00">truck&#45;stepio</text>
</g>
<!-- 4&#45;&gt;10 -->
<g id="edge9" class="edge">
<title>4&#45;&gt;10</title>
<path fill="none" stroke="black" d="M352.09,-504.94C335.54,-495.75 314.5,-484.05 296.23,-473.91"/>
<polygon fill="black" stroke="black" points="298.19,-470.99 287.74,-469.19 294.79,-477.11 298.19,-470.99"/>
</g>
<!-- 5&#45;&gt;0 -->
<g id="edge11" class="edge">
<title>5&#45;&gt;0</title>
<path fill="none" stroke="black" d="M483.42,-287.61C522.14,-258.83 588.63,-199 561,-144 535.85,-93.94 480.11,-58.86 439.72,-38.86"/>
<polygon fill="black" stroke="black" points="441.44,-35.8 430.92,-34.63 438.42,-42.12 441.44,-35.8"/>
</g>
<!-- 5&#45;&gt;2 -->
<g id="edge12" class="edge">
<title>5&#45;&gt;2</title>
<path fill="none" stroke="black" d="M407.13,-288.07C381.32,-278.73 349.84,-266.16 323,-252 287.05,-233.03 248.93,-206.29 223.14,-187.08"/>
<polygon fill="black" stroke="black" points="225.53,-184.49 215.43,-181.28 221.32,-190.09 225.53,-184.49"/>
</g>
<!-- 6 -->
<g id="node7" class="node">
<title>6</title>
<polygon fill="none" stroke="black" points="551.75,-180 450.25,-180 450.25,-144 551.75,-144 551.75,-180"/>
<text xml:space="preserve" text-anchor="middle" x="501" y="-156.95" font-family="Times,serif" font-size="14.00">truck&#45;polymesh</text>
</g>
<!-- 5&#45;&gt;6 -->
<g id="edge14" class="edge">
<title>5&#45;&gt;6</title>
<path fill="none" stroke="black" d="M463.27,-287.59C470.57,-263.5 483.81,-219.75 492.51,-191.03"/>
<polygon fill="black" stroke="black" points="495.83,-192.14 495.38,-181.56 489.13,-190.12 495.83,-192.14"/>
</g>
<!-- 5&#45;&gt;7 -->
<g id="edge15" class="edge">
<title>5&#45;&gt;7</title>
<path fill="none" stroke="black" d="M458.84,-287.58C458.9,-268.31 456.29,-237.17 441,-216 431.75,-203.19 418.39,-193.09 404.61,-185.29"/>
<polygon fill="black" stroke="black" points="406.37,-182.27 395.88,-180.73 403.12,-188.47 406.37,-182.27"/>
</g>
<!-- 5&#45;&gt;8 -->
<g id="edge13" class="edge">
<title>5&#45;&gt;8</title>
<path fill="none" stroke="blue" d="M439.21,-287.7C430.17,-279.37 419.16,-269.22 409.22,-260.07"/>
<polygon fill="blue" stroke="blue" points="411.67,-257.57 401.95,-253.37 406.93,-262.72 411.67,-257.57"/>
</g>
<!-- 6&#45;&gt;0 -->
<g id="edge16" class="edge">
<title>6&#45;&gt;0</title>
<path fill="none" stroke="black" d="M488.79,-143.75C475.92,-125.68 454.91,-96.56 436,-72 429.2,-63.18 421.6,-53.69 414.7,-45.21"/>
<polygon fill="black" stroke="black" points="417.56,-43.18 408.52,-37.66 412.15,-47.61 417.56,-43.18"/>
</g>
<!-- 6&#45;&gt;3 -->
<g id="edge17" class="edge">
<title>6&#45;&gt;3</title>
<path fill="none" stroke="black" d="M449.79,-145.81C411.83,-134.55 360.12,-119.21 321.05,-107.63"/>
<polygon fill="black" stroke="black" points="322.17,-104.31 311.59,-104.82 320.18,-111.02 322.17,-104.31"/>
</g>
<!-- 7&#45;&gt;0 -->
<g id="edge18" class="edge">
<title>7&#45;&gt;0</title>
<path fill="none" stroke="black" d="M351.76,-143.59C359.73,-119.5 374.22,-75.75 383.72,-47.03"/>
<polygon fill="black" stroke="black" points="387.04,-48.14 386.86,-37.55 380.4,-45.94 387.04,-48.14"/>
</g>
<!-- 7&#45;&gt;3 -->
<g id="edge19" class="edge">
<title>7&#45;&gt;3</title>
<path fill="none" stroke="black" d="M325.98,-143.7C316.24,-135.28 304.36,-125.02 293.69,-115.79"/>
<polygon fill="black" stroke="black" points="296.07,-113.23 286.22,-109.34 291.5,-118.52 296.07,-113.23"/>
</g>
<!-- 8&#45;&gt;0 -->
<g id="edge20" class="edge">
<title>8&#45;&gt;0</title>
<path fill="none" stroke="black" d="M390.72,-215.83C395.37,-205.69 400.62,-192.44 403,-180 411.75,-134.14 404.87,-79.74 399,-47.36"/>
<polygon fill="black" stroke="black" points="402.44,-46.74 397.12,-37.58 395.57,-48.06 402.44,-46.74"/>
</g>
<!-- 8&#45;&gt;2 -->
<g id="edge21" class="edge">
<title>8&#45;&gt;2</title>
<path fill="none" stroke="black" d="M334.55,-215.52C308.83,-206.04 276.86,-194.26 249.71,-184.26"/>
<polygon fill="black" stroke="black" points="251.19,-181.08 240.6,-180.9 248.77,-187.65 251.19,-181.08"/>
</g>
<!-- 8&#45;&gt;3 -->
<g id="edge22" class="edge">
<title>8&#45;&gt;3</title>
<path fill="none" stroke="black" d="M335.56,-215.55C318.72,-207.13 300.93,-195.44 289,-180 275.67,-162.76 269.73,-138.68 267.09,-119.91"/>
<polygon fill="black" stroke="black" points="270.57,-119.52 265.96,-109.98 263.61,-120.31 270.57,-119.52"/>
</g>
<!-- 8&#45;&gt;6 -->
<g id="edge23" class="edge">
<title>8&#45;&gt;6</title>
<path fill="none" stroke="black" d="M411.72,-215.52C426.89,-206.6 445.53,-195.63 461.85,-186.03"/>
<polygon fill="black" stroke="black" points="463.51,-189.11 470.35,-181.03 459.96,-183.08 463.51,-189.11"/>
</g>
<!-- 8&#45;&gt;7 -->
<g id="edge24" class="edge">
<title>8&#45;&gt;7</title>
<path fill="none" stroke="black" d="M373.1,-215.7C369.13,-207.98 364.37,-198.71 359.94,-190.11"/>
<polygon fill="black" stroke="black" points="363.17,-188.74 355.49,-181.45 356.95,-191.94 363.17,-188.74"/>
</g>
<!-- 9&#45;&gt;0 -->
<g id="edge25" class="edge">
<title>9&#45;&gt;0</title>
<path fill="none" stroke="black" d="M124.4,-359.56C90.67,-335.84 38,-290.01 38,-235 38,-235 38,-235 38,-161 38,-95.54 248.72,-46.66 345.47,-27.66"/>
<polygon fill="black" stroke="black" points="346.04,-31.12 355.19,-25.78 344.71,-24.25 346.04,-31.12"/>
</g>
<!-- 9&#45;&gt;2 -->
<g id="edge26" class="edge">
<title>9&#45;&gt;2</title>
<path fill="none" stroke="black" d="M153.72,-359.93C156.88,-330.37 164.38,-267.84 176,-216 177.81,-207.93 180.21,-199.31 182.6,-191.4"/>
<polygon fill="black" stroke="black" points="185.91,-192.53 185.57,-181.94 179.23,-190.43 185.91,-192.53"/>
</g>
<!-- 9&#45;&gt;3 -->
<g id="edge27" class="edge">
<title>9&#45;&gt;3</title>
<path fill="none" stroke="black" d="M143.83,-359.65C125.65,-318.25 86.97,-212.09 133,-144 149.96,-118.92 180.95,-105.7 208.64,-98.74"/>
<polygon fill="black" stroke="black" points="209.4,-102.16 218.38,-96.54 207.86,-95.33 209.4,-102.16"/>
</g>
<!-- 9&#45;&gt;5 -->
<g id="edge28" class="edge">
<title>9&#45;&gt;5</title>
<path fill="none" stroke="black" d="M201.16,-365.75C254.14,-353.63 338.57,-334.32 396.05,-321.17"/>
<polygon fill="black" stroke="black" points="396.73,-324.61 405.7,-318.96 395.17,-317.78 396.73,-324.61"/>
</g>
<!-- 9&#45;&gt;7 -->
<g id="edge31" class="edge">
<title>9&#45;&gt;7</title>
<path fill="none" stroke="black" d="M159.29,-359.54C173.29,-327.71 206.63,-259.49 252,-216 264.42,-204.1 280.02,-193.92 294.92,-185.75"/>
<polygon fill="black" stroke="black" points="296.51,-188.87 303.74,-181.13 293.26,-182.67 296.51,-188.87"/>
</g>
<!-- 9&#45;&gt;8 -->
<g id="edge29" class="edge">
<title>9&#45;&gt;8</title>
<path fill="none" stroke="blue" d="M180.2,-359.59C221.44,-334.13 298.28,-286.69 344.32,-258.27"/>
<polygon fill="blue" stroke="blue" points="345.97,-261.36 352.64,-253.13 342.29,-255.4 345.97,-261.36"/>
</g>
<!-- 9&#45;&gt;10 -->
<g id="edge30" class="edge">
<title>9&#45;&gt;10</title>
<path fill="none" stroke="black" stroke-dasharray="1,5" d="M183.44,-396.35C197.1,-405.02 212.91,-415.65 226.25,-425.08"/>
<polygon fill="black" stroke="black" points="224.06,-427.82 234.23,-430.81 228.15,-422.14 224.06,-427.82"/>
</g>
<!-- 10&#45;&gt;1 -->
<g id="edge32" class="edge">
<title>10&#45;&gt;1</title>
<path fill="none" stroke="#00cd00" stroke-dasharray="1,5" d="M214.31,-444.94C142.32,-435.28 0,-403.91 0,-307 0,-307 0,-307 0,-161 0,-100.51 64.19,-60.74 113.69,-39.07"/>
<polygon fill="#00cd00" stroke="#00cd00" points="114.75,-42.42 122.6,-35.31 112.03,-35.97 114.75,-42.42"/>
</g>
<!-- 10&#45;&gt;2 -->
<g id="edge33" class="edge">
<title>10&#45;&gt;2</title>
<path fill="none" stroke="black" d="M251.15,-431.54C240.61,-383.66 211.15,-249.95 198.22,-191.24"/>
<polygon fill="black" stroke="black" points="201.69,-190.72 196.12,-181.71 194.85,-192.23 201.69,-190.72"/>
</g>
<!-- 10&#45;&gt;3 -->
<g id="edge34" class="edge">
<title>10&#45;&gt;3</title>
<path fill="none" stroke="black" stroke-dasharray="1,5" d="M214.27,-448.21C176.2,-445.03 121.26,-433.67 94,-396 84.62,-383.04 93.3,-375.98 94,-360 98.23,-263.72 53.8,-220.04 113,-144 135.75,-114.78 175.68,-101.61 208.9,-95.7"/>
<polygon fill="black" stroke="black" points="209.05,-99.22 218.38,-94.2 207.96,-92.31 209.05,-99.22"/>
</g>
<!-- 10&#45;&gt;5 -->
<g id="edge35" class="edge">
<title>10&#45;&gt;5</title>
<path fill="none" stroke="blue" d="M279.89,-431.59C316.06,-406.29 383.25,-359.29 423.97,-330.8"/>
<polygon fill="blue" stroke="blue" points="425.79,-333.8 431.98,-325.2 421.78,-328.06 425.79,-333.8"/>
</g>
<!-- 10&#45;&gt;6 -->
<g id="edge37" class="edge">
<title>10&#45;&gt;6</title>
<path fill="none" stroke="black" d="M295.38,-443.32C355.96,-432.38 468.43,-402.11 517,-324 542.45,-283.07 526.59,-224.67 513.37,-190.61"/>
<polygon fill="black" stroke="black" points="516.65,-189.39 509.62,-181.46 510.17,-192.04 516.65,-189.39"/>
</g>
<!-- 10&#45;&gt;7 -->
<g id="edge39" class="edge">
<title>10&#45;&gt;7</title>
<path fill="none" stroke="black" d="M259.3,-431.52C269.09,-392.4 294.43,-295.07 323,-216 326,-207.7 329.65,-198.84 333.16,-190.79"/>
<polygon fill="black" stroke="black" points="336.28,-192.38 337.16,-181.83 329.89,-189.54 336.28,-192.38"/>
</g>
<!-- 10&#45;&gt;8 -->
<g id="edge36" class="edge">
<title>10&#45;&gt;8</title>
<path fill="none" stroke="black" d="M265.18,-431.85C287.19,-394.75 339.38,-306.81 365.92,-262.1"/>
<polygon fill="black" stroke="black" points="368.91,-263.92 371,-253.53 362.89,-260.35 368.91,-263.92"/>
</g>
<!-- 10&#45;&gt;9 -->
<g id="edge38" class="edge">
<title>10&#45;&gt;9</title>
<path fill="none" stroke="blue" d="M223.34,-431.52C209.7,-422.85 193.94,-412.25 180.66,-402.85"/>
<polygon fill="blue" stroke="blue" points="182.88,-400.14 172.72,-397.14 178.79,-405.82 182.88,-400.14"/>
</g>
<!-- 11 -->
<g id="node12" class="node">
<title>11</title>
<polygon fill="none" stroke="black" points="773.75,-252 678.25,-252 678.25,-216 773.75,-216 773.75,-252"/>
<text xml:space="preserve" text-anchor="middle" x="726" y="-228.95" font-family="Times,serif" font-size="14.00">truck&#45;platform</text>
</g>
<!-- 11&#45;&gt;0 -->
<g id="edge40" class="edge">
<title>11&#45;&gt;0</title>
<path fill="none" stroke="black" d="M720.3,-215.51C708.45,-182.03 677.84,-108.96 626,-72 570.84,-32.68 491.26,-21.96 440.85,-19.35"/>
<polygon fill="black" stroke="black" points="441.27,-15.86 431.14,-18.94 440.98,-22.86 441.27,-15.86"/>
</g>
<!-- 12 -->
<g id="node13" class="node">
<title>12</title>
<polygon fill="none" stroke="black" points="699.88,-396 602.12,-396 602.12,-360 699.88,-360 699.88,-396"/>
<text xml:space="preserve" text-anchor="middle" x="651" y="-372.95" font-family="Times,serif" font-size="14.00">truck&#45;rendimpl</text>
</g>
<!-- 12&#45;&gt;5 -->
<g id="edge41" class="edge">
<title>12&#45;&gt;5</title>
<path fill="none" stroke="blue" d="M602.8,-359.52C576.68,-350.04 544.19,-338.26 516.62,-328.26"/>
<polygon fill="blue" stroke="blue" points="517.94,-325.02 507.35,-324.9 515.55,-331.6 517.94,-325.02"/>
</g>
<!-- 12&#45;&gt;6 -->
<g id="edge44" class="edge">
<title>12&#45;&gt;6</title>
<path fill="none" stroke="black" d="M648.01,-359.62C641.79,-327.92 624.86,-259.91 588,-216 577.84,-203.9 564.18,-193.79 550.7,-185.76"/>
<polygon fill="black" stroke="black" points="552.72,-182.88 542.29,-181.02 549.28,-188.98 552.72,-182.88"/>
</g>
<!-- 12&#45;&gt;8 -->
<g id="edge42" class="edge">
<title>12&#45;&gt;8</title>
<path fill="none" stroke="blue" d="M628.21,-359.68C602.25,-340.48 558.12,-309.42 517,-288 493.57,-275.8 466.66,-264.69 443.07,-255.84"/>
<polygon fill="blue" stroke="blue" points="444.5,-252.63 433.91,-252.45 442.08,-259.2 444.5,-252.63"/>
</g>
<!-- 12&#45;&gt;11 -->
<g id="edge43" class="edge">
<title>12&#45;&gt;11</title>
<path fill="none" stroke="black" d="M660.2,-359.59C673.03,-335.29 696.44,-290.97 711.6,-262.27"/>
<polygon fill="black" stroke="black" points="714.68,-263.93 716.26,-253.45 708.49,-260.66 714.68,-263.93"/>
</g>
<!-- 13 -->
<g id="node14" class="node">
<title>13</title>
<polygon fill="none" stroke="black" points="580.62,-540 427.38,-540 427.38,-504 580.62,-504 580.62,-540"/>
<text xml:space="preserve" text-anchor="middle" x="504" y="-516.95" font-family="Times,serif" font-size="14.00">example&#45;pages&#45;generator</text>
</g>
<!-- 14 -->
<g id="node15" class="node">
<title>14</title>
<polygon fill="none" stroke="black" points="711,-540 599,-540 599,-504 711,-504 711,-540"/>
<text xml:space="preserve" text-anchor="middle" x="655" y="-516.95" font-family="Times,serif" font-size="14.00">readme&#45;generator</text>
</g>
</g>
</svg>
